<?xml version="1.0" encoding="utf-8"?>
<!-- Generator: Adobe Illustrator 22.0.1, SVG Export Plug-In . SVG Version: 6.00 Build 0)  -->
<svg version="1.1" id="Layer_1" xmlns="http://www.w3.org/2000/svg" xmlns:xlink="http://www.w3.org/1999/xlink" x="0px" y="0px"
	 viewBox="0 0 512 512" style="enable-background:new 0 0 512 512;" xml:space="preserve">
<style type="text/css">
	.st0{fill:#FFFFFF;}
</style>
<g id="facebook__x2C__social__x2C__media_x2C__icon_x2C_">
	<path class="st0" d="M434.5,16h-357C43.7,16,16,43.7,16,77.5v357c0,33.8,27.7,61.5,61.5,61.5h357c33.8,0,61.5-27.7,61.5-61.5v-357
		C496,43.7,468.3,16,434.5,16z M327.2,230.9l-2.3,25.1H277c0,72,0,160,0,160h-64c0,0,0-87,0-160h-32v-25.4V192h32v-29
		c0-26.2,12.5-67.2,67.5-67.2L330,96v55c0,0-30.2,0-36,0c-5.8,0-14,2.8-14,15.3V192h50.7L327.2,230.9z"/>
</g>
<g id="Layer_1_1_">
</g>
</svg>
