<?xml version="1.0" encoding="utf-8"?>
<!-- Generator: Adobe Illustrator 22.0.1, SVG Export Plug-In . SVG Version: 6.00 Build 0)  -->
<svg version="1.1" id="Layer_1" xmlns="http://www.w3.org/2000/svg" xmlns:xlink="http://www.w3.org/1999/xlink" x="0px" y="0px"
	 viewBox="0 0 512 512" style="enable-background:new 0 0 512 512;" xml:space="preserve">
<style type="text/css">
	.st0{fill:#FFFFFF;}
</style>
<g id="isntagram__x2C__social__x2C__media_x2C__icon_x2C_">
	<g>
		<path class="st0" d="M434.5,16h-357C43.7,16,16,43.7,16,77.5v357c0,33.8,27.7,61.5,61.5,61.5h357c33.8,0,61.5-27.7,61.5-61.5v-357
			C496,43.7,468.3,16,434.5,16z M416,223.1v24.1v107.1c0,34.1-27.6,61.7-61.7,61.7H157.7c-34.1,0-61.7-27.6-61.7-61.7V247.2v-24.1
			v-65.4c0-34.1,27.6-61.7,61.7-61.7h196.5c34.1,0,61.7,27.6,61.7,61.7V223.1z"/>
		<path class="st0" d="M256,312.4c31.1,0,56.4-25.3,56.4-56.4c0-10-2.7-19.3-7.3-27.5c-1.1-1.8-2.2-3.7-3.4-5.4
			c-10.3-14.2-26.9-23.5-45.7-23.5c-18.8,0-35.5,9.3-45.7,23.5c-1.2,1.7-2.3,3.5-3.4,5.4c-4.6,8.2-7.3,17.5-7.3,27.5
			C199.6,287.1,224.9,312.4,256,312.4z"/>
		<polygon class="st0" points="379,187 379,139.8 379,132.7 372,132.7 324.8,132.9 324.9,187.2 		"/>
		<path class="st0" d="M340.2,232.1c2.2,7.6,3.4,15.6,3.4,23.9c0,48.3-39.3,87.6-87.6,87.6c-48.3,0-87.6-39.3-87.6-87.6
			c0-8.3,1.2-16.3,3.4-23.9c0.9-3.1,1.9-6.1,3.1-9.1H127v16.7v114.6c0,16.9,13.8,30.7,30.7,30.7h196.5c16.9,0,30.7-13.8,30.7-30.7
			V239.7V223h-47.9C338.3,226,339.3,229,340.2,232.1z"/>
	</g>
</g>
<g id="Layer_1_1_">
</g>
</svg>
