<?xml version="1.0" encoding="utf-8"?>
<!-- Generator: Adobe Illustrator 22.0.1, SVG Export Plug-In . SVG Version: 6.00 Build 0)  -->
<svg version="1.1" id="Layer_1" xmlns="http://www.w3.org/2000/svg" xmlns:xlink="http://www.w3.org/1999/xlink" x="0px" y="0px"
	 viewBox="0 0 512 512" style="enable-background:new 0 0 512 512;" xml:space="preserve">
<style type="text/css">
	.st0{fill:#FFFFFF;}
</style>
<g id="twitter__x2C__social__x2C__media_x2C__icons_x2C_">
	<path class="st0" d="M434.5,16h-357C43.7,16,16,43.7,16,77.5v357c0,33.8,27.7,61.5,61.5,61.5h357c33.8,0,61.5-27.7,61.5-61.5v-357
		C496,43.7,468.3,16,434.5,16z M383.4,191.7c0.1,2.8,0.2,5.6,0.2,8.4c0,12.9-1.5,26-4.5,39c-16.7,73.9-79.8,145-182.5,145
		c-37.1,0-71.6-10.7-100.8-29.1c5.2,0.6,10.4,0.9,15.7,0.9c30.8,0,59.1-10.3,81.6-27.7c-28.8-0.5-53-19.2-61.4-44.9
		c4,0.8,8.1,1.2,12.4,1.2c6,0,11.8-0.8,17.3-2.3c-22.1-4.4-40.1-19.7-48.1-40c-2.9-7.3-4.4-15.2-4.4-23.4c0-0.3,0-0.5,0-0.8
		c9,4.9,18.9,7.8,29.6,8.1c-17.6-11.6-29.3-31.4-29.3-53.8c0-11.9,3.2-23,8.9-32.5c32.4,39.1,80.8,64.9,135.4,67.6
		c-1.1-4.8-1.7-9.7-1.7-14.7c0-35.7,29.4-64.7,65.7-64.7c18.9,0,36,7.8,47.9,20.4c15-2.9,29.1-8.3,41.8-15.7
		c-4.9,15.1-15.3,27.8-28.9,35.8c13.3-1.6,26-5,37.7-10.2C407.4,171.2,396.2,182.6,383.4,191.7z"/>
</g>
<g id="Layer_1_1_">
</g>
</svg>
