<?xml version="1.0" encoding="utf-8"?>
<!-- Generator: Adobe Illustrator 22.0.1, SVG Export Plug-In . SVG Version: 6.00 Build 0)  -->
<svg version="1.1" id="Lag_1" xmlns="http://www.w3.org/2000/svg" xmlns:xlink="http://www.w3.org/1999/xlink" x="0px" y="0px"
	 viewBox="0 0 100 97.7" style="enable-background:new 0 0 100 97.7;" xml:space="preserve">
<style type="text/css">
	.st0{fill:#FFFFFF;}
</style>
<g>
	<path class="st0" d="M41.8,7.3C41.8,7.3,41.8,7.3,41.8,7.3C41.8,7.3,41.8,7.3,41.8,7.3C41.8,7.3,41.8,7.3,41.8,7.3
		C41.8,7.3,41.8,7.3,41.8,7.3z"/>
	<path class="st0" d="M36.2,23.3c-0.6-1-1.9-1.4-2.9-0.8c-5.7,3.4-11.3,6.9-17,10.3C16.2,33,16,33,15.9,33.1c0.2-0.3,0.4-0.6,0.6-1
		c0.7-1.2-1.2-2.3-1.9-1.1c-0.9,1.4-1.7,2.9-2.4,4.3c0,0-0.1,0-0.1,0.1c-0.6,0.4-1.2,0.7-1.8,1c0.1,0-0.4,0.1-0.4,0.1
		c-0.1,0-0.3,0.1-0.4,0.1c-0.1,0-0.1,0-0.1,0c0,0-0.1,0-0.1,0c-0.1,0-0.5-0.1-0.4,0c0,0-0.1,0-0.1,0c0.3-0.9,0.7-1.8,1-2.7
		c0-0.1,0.1-0.2,0-0.3c0.6-1.4,1.3-2.8,1.9-4.1c0.2-0.5,0.2-1.2-0.4-1.5c-0.5-0.3-1.2-0.1-1.5,0.4c-0.8,1.7-1.6,3.4-2.4,5.1
		c-0.1,0.2-0.2,0.5-0.1,0.7c-0.1,0.2-0.1,0.3-0.2,0.5c-0.2-0.5-0.3-1.1-0.5-1.6c-0.1-0.5-0.2-1.1-0.3-1.6c0-0.3-0.1-0.6-0.1-0.9
		c0.9-2.8,2.4-5.5,4.2-7.8c0.4-0.5,0.4-1.1,0-1.5c-0.4-0.4-1.2-0.5-1.5,0c-1.3,1.6-2.4,3.2-3.2,5c-0.1-0.6-0.2-1.3-0.2-1.9
		c-0.1-0.7-0.1-1.4-0.2-2.1c1-2,2.3-3.9,3.8-5.6c0.9-1-0.6-2.6-1.5-1.5c-1,1.1-1.9,2.2-2.6,3.4c-0.1-1.3-0.2-2.5-0.3-3.8
		c1.2-1.6,2.4-3.2,3.6-4.7c0.4-0.5,0.1-1.2-0.4-1.5C7.3,8.2,6.7,8.4,6.4,8.9c-0.6,0.8-1.2,1.7-1.9,2.5c0-0.6-0.1-1.2-0.1-1.9
		C5.5,8.3,6.5,7,7.3,5.6C7.4,5.4,7.4,5.2,7.4,5C8.6,5,9.8,5,11,5c3.6,0,7.2,0.2,10.7,0.5c3.8,0.3,6.9,0.8,10.6,1.4
		c1.1,0.2,2.4-0.3,2.6-1.5c0.2-1-0.3-2.4-1.5-2.6c-7-1.2-14-1.9-21-2.1c-1.7,0-3.5,0-5.2,0c-0.8,0-1.6,0-2.4,0.1c-1,0-2.2,0-3.1,0.4
		c-2,1-1.7,3.2-1.6,5.1c0,1.8,0.1,3.6,0.2,5.4c0.4,7.1,1,14.1,2.1,21.1c0.4,2.4,1.1,5.2,3.1,6.8c1.4,1.2,3.2,1.6,5,1.2
		c1.7-0.3,3.2-1.3,4.6-2.2c6.8-4.1,13.6-8.3,20.4-12.4C36.4,25.7,36.8,24.3,36.2,23.3z M5,5.1C4.8,5.5,4.6,5.8,4.3,6.2
		c0-0.4,0-0.7,0-1.1C4.5,5.1,4.8,5.1,5,5.1z"/>
	<path class="st0" d="M100,24.9c0-1.6-0.1-3.2-0.2-4.7c-0.2-3.2-0.5-6.4-1-9.6c-0.2-1.5-0.5-3-0.8-4.5c-0.3-1.4-0.5-3.1-1.2-4.4
		c-0.5-0.8-1.2-1.3-2.1-1.6c-0.9-0.2-1.8,0-2.6,0.1c-1.6,0.2-3.1,0.3-4.7,0.5C80.2,1.4,73,2.1,65.9,2.9C64.8,3,63.7,3.8,63.8,5
		c0,1.1,0.9,2.3,2.1,2.1c6-0.6,11.9-1.2,17.9-1.9c3-0.3,6-0.6,8.9-0.9c0.2,0,0.4,0,0.5-0.1c0.1,0.3,0.1,0.6,0.2,0.8
		c0.3,1.4,0.6,2.9,0.9,4.3c0.5,2.9,0.8,5.3,1.1,8.3c0.2,2,0.3,4,0.3,6.1c-0.2-0.1-0.4-0.2-0.6-0.2c-0.6,0-1,0.5-1.1,1.1
		c-0.2,2-0.3,4.1-0.5,6.1c-0.3-0.1-0.6-0.2-0.8-0.3c-0.5-0.2-1-0.3-1.6-0.5c0.1-0.4,0.2-0.8,0.3-1.3c0.3-1.4-1.8-2-2.1-0.6
		c-0.1,0.4-0.2,0.8-0.3,1.2c-0.6-0.2-1.2-0.4-1.8-0.6c0.1-0.8,0.3-1.6,0.4-2.4c0.1-0.6-0.2-1.2-0.8-1.3c-0.5-0.1-1.2,0.2-1.3,0.8
		c-0.1,0.8-0.3,1.5-0.4,2.3c-0.9-0.3-1.8-0.6-2.7-0.9c0.2-0.5,0.3-1,0.5-1.5c0.5-1.3-1.6-1.9-2.1-0.6c-0.2,0.5-0.3,0.9-0.5,1.4
		c-1.1-0.4-2.1-0.7-3.2-1.1c0.1-0.4,0.3-0.8,0.5-1.2c0.3-0.5,0.1-1.2-0.4-1.5c-0.5-0.3-1.2-0.1-1.5,0.4c-0.3,0.5-0.5,1.1-0.7,1.6
		c-1.4-0.5-2.9-0.9-4.3-1.4c0.2-0.6,0.3-1.1,0.5-1.7c0.4-1.3-1.7-1.9-2.1-0.6c-0.2,0.5-0.3,1.1-0.5,1.6c-0.5-0.2-1-0.3-1.6-0.5
		c-1.1-0.4-2.4,0.4-2.6,1.5c-0.3,1.2,0.4,2.3,1.5,2.6c6,2,12.1,4,18.1,6c1.5,0.5,3.1,1,4.6,1.5c1.4,0.5,2.9,1.1,4.4,1.4
		c1.7,0.3,3.3-0.2,4.6-1.4c1.1-1.1,1.7-2.5,2-4C100,28.1,100,26.5,100,24.9z"/>
	<path class="st0" d="M64.9,30.9c-2.9-1-6-1.5-9-1.7C54.4,29,53,29,51.5,29c0.3-0.1,0.6-0.1,0.9-0.2c2.5-0.6,5.1-1.4,7.2-2.9
		c1.1-0.8,2.2-1.8,2.9-3.1c0.8-1.4,1.1-3,1.3-4.6c0.3-2.8,0.3-5.9-0.7-8.6c-1-2.5-2.7-4.4-5.1-5.6c-0.3-0.2-0.7-0.3-1-0.5
		c-0.5-0.2-1-0.2-1.5-0.3c-0.6-0.1-1.2-0.1-1.8-0.2c-1.2-0.1-2.5-0.2-3.7-0.3c-1.5-0.1-3.1-0.1-4.6,0c-1.5,0.1-3.2,0-4.7,0.5
		c-3.3,1.1-3.6,5-4,8c-0.4,3.2-0.5,6.6,0.2,9.9c0.6,3.2,2.6,6,5.6,7.4c0.1,0,0.2,0.1,0.3,0.1c0.1,0,0.2,0.1,0.3,0.1
		c0.6,0.2,1.2,0.4,1.8,0.6c-4.6,0.3-9.4,0.8-13.7,2.6c-1.9,0.8-3.9,2.1-4.8,4c-0.9,1.8-0.8,4,0.3,5.7c0.6,1,1.5,1.8,2.7,2.2
		c0.4,0.1,0.9,0.2,1.3,0.2c0.2,0.5,0.4,1.1,0.6,1.6c0.4,1.1,0.7,2.2,0.9,3.3c0.3,1.1,0.5,2.2,0.6,3.4c0,0.1,0.1,0.5,0.1,0.6
		c0,0.3,0.1,0.6,0.1,0.8c0.1,0.6,0.1,1.2,0.2,1.8c0.4,4.7,0.3,9.5,0.1,14.2c-0.2,4.6-0.6,9.2-0.4,13.8c0.2,4,1,8.5,4.3,11.2
		c0.4,0.3,0.7,0.6,1.1,0.9c0.6,0.4,1.1,1,1.8,1.3c0.8,0.3,1.8,0.4,2.7,0.6c2.8,0.6,5.7,0.6,8.5,0c1.7,0.3,3.5,0.3,5.2-0.1
		c1.7-0.4,3.3-1.3,4.6-2.5c2.5-2.1,4.1-5.2,4.8-8.3c1.1-4.5,0.5-9.2,0.2-13.7c-0.4-4.7-0.6-9.3-0.7-14c-0.1-4.6,0-9.3,0.2-13.9
		c1.6-0.2,3.1-0.6,4.5-1.4c2.6-1.5,3.7-4.5,2.4-7.3C70.9,33.3,67.7,31.9,64.9,30.9z M68.6,38.5C68.6,38.5,68.6,38.5,68.6,38.5
		C68.6,38.5,68.6,38.5,68.6,38.5z M41.7,7.3C41.7,7.3,41.7,7.3,41.7,7.3C41.7,7.3,41.7,7.3,41.7,7.3z M41.8,7.3
		C41.8,7.3,41.8,7.3,41.8,7.3C41.7,7.3,41.7,7.3,41.8,7.3C41.7,7.3,41.7,7.3,41.8,7.3z M40.8,19.3C40.8,19.4,40.8,19.7,40.8,19.3
		L40.8,19.3z M40.8,19.3C40.8,19.3,40.8,19.3,40.8,19.3c0-0.2,0-0.3-0.1-0.5c0.8-2.1,1.8-4.1,2.9-6.1c0.7-1.2-1.1-2.3-1.9-1.1
		c-0.4,0.7-0.8,1.3-1.1,2c0,0,0-0.1,0-0.1c0-0.6,0.1-1.3,0.2-1.9c0-0.1,0-0.2,0-0.4c0-0.1,0-0.2,0-0.2c0.1-0.4,0.1-0.7,0.2-1.1
		c0.1-0.6,0.2-1.2,0.4-1.8c0.1-0.2,0.1-0.4,0.2-0.6c0,0,0,0,0-0.1c0,0,0.1-0.1,0.1-0.1c0.1,0,0.1,0,0.1,0c0,0,0,0,0,0c0,0,0,0,0,0
		c0,0,0,0,0,0c0,0,0,0,0,0c0,0,0,0,0,0c0,0,0,0,0,0c0,0,0,0,0,0c0.2,0,0.4-0.1,0.4-0.1c0.7-0.1,1.3-0.1,2-0.1
		C45.5,7,46.9,6.9,48.2,7c2.4,0,4.8,0.3,7.2,0.5c0.3,0.1,0.6,0.3,0.9,0.4c0.2,0.1,0.3,0.2,0.5,0.3c0.1,0.1,0.2,0.1,0.3,0.2
		c0,0,0.1,0,0.1,0c0,0,0,0,0,0c0.3,0.3,0.6,0.6,0.9,0.9c0,0,0.2,0.3,0.3,0.4c0.2,0.3,0.3,0.5,0.4,0.8c0,0.1,0,0.1,0.1,0.2
		c0,0,0.1,0.2,0.1,0.2c0.1,0.2,0.2,0.5,0.2,0.7c0.1,0.3,0.2,0.6,0.2,1c0,0.1,0,0.2,0.1,0.3c0-0.1,0,0.4,0.1,0.4
		c0.1,1.3,0.1,2.5,0,3.8c0,0.3,0,0.6-0.1,0.9c0,0,0,0.2,0,0.2c0,0.1,0,0.2,0,0.2c-0.1,0.3-0.1,0.6-0.2,0.9c0,0.1-0.1,0.3-0.1,0.4
		c0,0.1-0.2,0.4-0.1,0.4c-0.1,0.2-0.2,0.3-0.2,0.5c-0.1-0.3-0.3-0.6-0.7-0.7c-0.5-0.1-1.3,0.2-1.3,0.8c-0.1,0.7-0.2,1.4-0.4,2.1
		c-0.2,0.1-0.4,0.2-0.6,0.3c-0.1,0.1-0.2,0.1-0.3,0.2c0,0-0.3,0.1-0.3,0.1c-0.5,0.2-1,0.4-1.6,0.6c0.1-0.3,0.1-0.6,0.2-0.9
		c0.1-0.6-0.2-1.2-0.8-1.3c-0.5-0.1-1.2,0.2-1.3,0.8c-0.1,0.7-0.2,1.5-0.4,2.2c-0.4,0.1-0.9,0.2-1.3,0.3c-0.1,0-0.3,0.1-0.4,0.1
		c-0.1,0-0.1,0-0.2,0c0,0-0.1,0-0.1,0c-0.4,0-0.8,0.1-1.1,0.1c-0.1,0-0.2,0-0.2,0c0.5-1,1.1-2,1.7-2.9c0.3-0.5,0.1-1.2-0.4-1.5
		c-0.5-0.3-1.2-0.1-1.5,0.4c-0.8,1.2-1.5,2.5-2.1,3.8c-0.4-0.1-0.8-0.2-1.2-0.4c-0.4-0.2-0.9-0.5-1.3-0.7c0,0-0.1-0.1-0.1-0.1
		c-0.1-0.1-0.1-0.1-0.2-0.2c-0.1-0.1-0.1-0.1-0.2-0.2c0.3-0.1,0.6-0.4,0.6-0.7c0.3-2,0.9-3.8,2-5.5c0.7-1.2-1.2-2.3-1.9-1.1
		c-0.9,1.6-1.6,3.3-2,5.1c-0.1-0.2-0.1-0.4-0.2-0.6c-0.1-0.3-0.1-0.5-0.2-0.8C40.8,19.6,40.8,19.4,40.8,19.3z M30.5,39.6
		C30.4,39.6,30.4,39.6,30.5,39.6C30.4,39.6,30.4,39.6,30.5,39.6z M54.3,93.2C54.4,93.2,54.4,93.2,54.3,93.2
		C54.4,93.2,54.4,93.2,54.3,93.2z M60.8,87.7c0,0,0-0.1,0.1-0.1C60.9,87.6,60.9,87.6,60.8,87.7z M68.4,39.2
		C68.4,39.2,68.4,39.2,68.4,39.2c-0.1,0.1-0.1,0.1-0.1,0.1C68.3,39.3,68.3,39.3,68.4,39.2c-0.1,0.1-0.2,0.2-0.2,0.2c0,0,0,0,0,0
		c-0.2,0.1-0.4,0.2-0.6,0.3c-0.1,0-0.2,0.1-0.2,0.1c-0.5,0.2,0,0,0,0c0,0.1-1.3,0.4-1.5,0.5c-0.3,0.1-0.5,0.1-0.8,0.2
		c-0.1,0-0.2,0-0.4,0.1c0,0,0,0,0,0c-0.5,0.1-0.9,0.1-1.4,0.1c-1.2,0.1-2.1,0.9-2.1,2.1c-0.5,9.6-0.3,19.2,0.3,28.8
		c0.2,2.3,0.4,4.7,0.5,7c0,1.2,0.1,2.4,0,3.5c0,0.4-0.1,1.1-0.1,1.4c0,0,0,0.3-0.1,0.3c0,0.2,0,0.3-0.1,0.4c0,0.3-0.1,0.5-0.2,0.8
		c-0.2,0.8-0.4,1.5-0.7,2.2c0,0,0,0.1,0,0.1c0,0,0,0,0,0c-0.1,0.2-0.1,0.3-0.2,0.5c-0.2,0.4-0.4,0.7-0.6,1.1
		c-0.2,0.3-0.4,0.6-0.6,0.9c-0.1,0.1-0.1,0.2-0.2,0.2c-0.1,0.2,0.1-0.1,0.1-0.1c0,0.1-0.2,0.2-0.3,0.4c0-0.1,0-0.2,0-0.3
		C59,89.1,59.1,88,59.5,87c0.4-1.3-1.7-1.9-2.1-0.6c-0.4,1.2-0.5,2.5-0.4,3.7c0.1,0.6,0.4,1.1,1.1,1.1c0.1,0,0.3,0,0.4-0.1
		c-0.1,0.1-0.2,0.2-0.3,0.3c-0.1,0.1-0.3,0.2-0.4,0.3c0,0-0.2,0.1-0.2,0.1c0,0,0,0,0,0c-0.3,0.2-0.6,0.4-0.9,0.5
		c-0.2,0.1-0.3,0.2-0.5,0.3c-0.1,0-0.2,0.1-0.2,0.1c-0.4,0.1-0.7,0.2-1.1,0.3c-0.2,0-0.4,0.1-0.5,0.1c-0.1,0-0.1,0-0.1,0
		c-0.1,0-0.1,0-0.2,0c-0.4,0-0.8,0-1.3,0c-0.2,0-0.4,0-0.6,0c-0.1,0-0.2,0-0.4-0.1c-0.5-0.1-1-0.1-1.5,0c-0.3,0-0.5,0.1-0.8,0.2
		c-0.1,0-0.3,0.1-0.4,0.1c0,0-0.1,0-0.1,0c0,0,0,0-0.1,0c0-1.1,0.1-2.2,0.3-3.3c0.3-1.4-1.8-1.9-2.1-0.6c-0.3,1.3-0.4,2.6-0.4,4
		c-0.6,0-1.3,0-1.9-0.1c-0.1,0-0.1,0-0.2,0c-0.1,0-0.3,0-0.4-0.1c-0.2,0-0.4-0.1-0.7-0.1c-0.1,0-0.1,0-0.2,0
		c0.3-0.1,0.5-0.3,0.6-0.7c0.3-1.1,0.7-2.3,1-3.4c0.4-1.3-1.7-1.9-2.1-0.6c-0.3,1.1-0.7,2.3-1,3.4c-0.1,0.4,0,0.8,0.3,1
		c-0.2,0-0.5-0.1-0.7-0.1c0,0,0,0-0.1,0c0,0,0,0,0,0c0,0,0,0,0,0c-0.1,0-0.1-0.1,0,0c-0.1-0.1-0.2-0.1-0.2-0.2
		c-0.3-0.2-0.5-0.4-0.8-0.6c-0.2-0.1-0.3-0.2-0.5-0.4c0,0-0.2-0.2-0.3-0.2c0,0,0,0-0.1-0.1c0.2-0.1,0.3-0.3,0.4-0.6
		c0.4-1.5,0.7-2.9,1.1-4.4c0.3-1.4-1.8-1.9-2.1-0.6c-0.3,1.2-0.6,2.4-0.8,3.6c0-0.1-0.1-0.1-0.1-0.2c-0.1-0.1-0.2-0.4-0.2-0.3
		c-0.1-0.2-0.1-0.3-0.2-0.5c-0.1-0.4-0.3-0.9-0.4-1.3c-0.1-0.4-0.2-0.8-0.2-1.2c0-0.1-0.1-0.8,0-0.3c0-0.1,0-0.2,0-0.4
		c0.4-1.3,0.9-2.5,1.5-3.8c0.3-0.5,0.1-1.2-0.4-1.5c-0.4-0.2-1-0.2-1.3,0.1c0-1.5,0.1-3,0.1-4.5c0.4-1.1,0.9-2.2,1.3-3.3
		c0.2-0.5-0.2-1.2-0.8-1.3c-0.1,0-0.2,0-0.3,0c0-0.5,0-1,0.1-1.5c0.4-8.6,0.5-17.6-2.4-25.9c0.3-0.2,0.4-0.6,0.3-1
		c-0.2-1.1-0.4-2.3-0.7-3.4c-0.2-1.2-1.9-0.9-2.1,0.1c-0.4-0.9-1.9-0.6-2,0.3c0,0,0,0,0,0c0,0-0.1,0-0.1,0c0,0-0.1,0-0.1,0
		c0,0,0,0,0,0c-0.1-0.1-0.2-0.3-0.2-0.3c0,0,0,0,0-0.1c0-0.1-0.1-0.2-0.1-0.4c0,0,0-0.1,0-0.1c0-0.1,0-0.2,0-0.4c0,0,0,0,0,0
		c0-0.1,0.1-0.3,0.1-0.4c0,0,0,0,0,0c0.1-0.2,0.2-0.3,0.3-0.5c0,0,0.1-0.1,0.1-0.1c0.1-0.1,0.3-0.3,0.4-0.4c0,0,0,0,0.1-0.1
		c0,0,0,0,0,0c0.2-0.1,0.3-0.2,0.5-0.3c0.3-0.2,0.7-0.4,1-0.5c0.2-0.1,0.5-0.2,0.1-0.1c0.2-0.1,0.4-0.2,0.7-0.2
		c1.8-0.6,3.7-1.1,5.5-1.4c0.5-0.1,1.1-0.2,1.6-0.3c0,0,0,0,0,0c0.2,0,0.4,0,0.6-0.1c0.3,0,0.5-0.1,0.8-0.1c1.1-0.1,2.3-0.2,3.5-0.3
		c2.8-0.1,5.7-0.2,8.5-0.1c1.3,0,2.7,0.1,4,0.3c0.1,0,0.3,0,0.4,0.1c-0.1,0-0.1,0-0.2,0c0,0,0.2,0,0.2,0c0.3,0.1,0.7,0.1,1,0.2
		c0.7,0.1,1.3,0.3,2,0.4c0.6,0.1,1.2,0.3,1.8,0.5c0.3,0.1,0.6,0.2,1,0.3c0.1,0,0.3,0.1,0.4,0.1c0,0,0.4,0.2,0.4,0.1
		c0.5,0.2,1,0.5,1.5,0.8c0.3,0.1,0.5,0.3,0.8,0.5c0.1,0.1,0.2,0.1,0.3,0.2c0,0,0.1,0,0.1,0c0,0,0,0,0.1,0.1c0.2,0.2,0.4,0.4,0.6,0.6
		c0,0,0.1,0.1,0.1,0.1c0.1,0.1,0.1,0.2,0.2,0.2c0.1,0.1,0.1,0.2,0.2,0.3c0,0,0,0,0,0c0,0,0,0.1,0.1,0.2c0,0,0,0,0,0.1
		c0,0.1,0,0.2,0,0.2c0,0.1,0,0.1,0,0.2c0,0.1-0.1,0.1-0.1,0.2c0,0,0,0,0,0C68.5,39.1,68.5,39.1,68.4,39.2z"/>
	<path class="st0" d="M41.5,92.8C41.5,92.8,41.5,92.8,41.5,92.8C41.5,92.7,41.5,92.7,41.5,92.8C41.5,92.7,41.5,92.7,41.5,92.8z"/>
	<path class="st0" d="M68.3,39.2C68.3,39.2,68.3,39.2,68.3,39.2c0.1-0.1,0.1-0.1,0.1-0.2C68.4,39.1,68.4,39.1,68.3,39.2z"/>
	<path class="st0" d="M58,33.6C58,33.6,58,33.6,58,33.6L58,33.6z"/>
	<path class="st0" d="M37.1,38.1c-0.3-1.4-2.4-0.8-2.1,0.6c0.4,1.5,0.9,3,1.6,4.4c0.6,1.3,2.5,0.1,1.9-1.1
		C37.8,40.7,37.4,39.4,37.1,38.1z"/>
	<path class="st0" d="M40.8,38.4c-0.1-0.6-0.8-0.9-1.3-0.8c-0.6,0.2-0.9,0.8-0.8,1.3c0.1,0.7,0.2,1.4,0.3,2c0.1,0.6,0.8,0.9,1.3,0.8
		c0.6-0.2,0.9-0.8,0.8-1.3C41,39.8,40.9,39.1,40.8,38.4z"/>
	<path class="st0" d="M45.2,38.1c-0.4-1.3-2.5-0.8-2.1,0.6c0.3,1.1,0.7,2.3,1,3.4c0.4,1.3,2.5,0.8,2.1-0.6
		C45.9,40.4,45.5,39.2,45.2,38.1z"/>
	<path class="st0" d="M48.9,38.1c-0.4-1.4-2.5-0.8-2.1,0.6c0.2,0.8,0.4,1.6,0.6,2.4c0.4,1.4,2.5,0.8,2.1-0.6
		C49.3,39.7,49.1,38.9,48.9,38.1z"/>
	<path class="st0" d="M54.7,89.4c0.3-1.4-1.8-2-2.1-0.6c-0.3,1.2-0.3,2.4,0,3.6c0.3,1.4,2.4,0.8,2.1-0.6
		C54.5,91.1,54.5,90.2,54.7,89.4z"/>
</g>
</svg>
