<?xml version="1.0" encoding="utf-8"?>
<!-- Generator: Adobe Illustrator 22.0.1, SVG Export Plug-In . SVG Version: 6.00 Build 0)  -->
<svg version="1.1" id="Layer_1" xmlns="http://www.w3.org/2000/svg" xmlns:xlink="http://www.w3.org/1999/xlink" x="0px" y="0px"
	 viewBox="0 0 512 512" style="enable-background:new 0 0 512 512;" xml:space="preserve">
<style type="text/css">
	.st0{fill:#FFFDFD;}
</style>
<g id="youtube__x2C__social__x2C_media__x2C__icons_x2C_">
	<g>
		<polygon class="st0" points="222.9,205.5 222.9,227.3 222.9,299.3 309.4,252.6 261.9,226.7 		"/>
		<path class="st0" d="M434.5,16h-357C43.7,16,16,43.7,16,77.5v357c0,33.8,27.7,61.5,61.5,61.5h357c33.8,0,61.5-27.7,61.5-61.5v-357
			C496,43.7,468.3,16,434.5,16z M416,247.9v20.7c0,27.1-3.1,54.1-3.1,54.1s-3.1,23-12.7,33.1c-12.2,13.3-25.8,13.4-32,14.2
			c-44.9,3.4-112.2,3.5-112.2,3.5s-83.3-0.8-108.9-3.4c-7.1-1.4-23.1-1-35.3-14.3c-9.6-10.1-12.6-33.2-12.6-33.2s-3.1-27-3.1-54.1
			v-22.1v-3.3c0-27,3.1-54.1,3.1-54.1s3.1-23,12.7-33.2c12.2-13.3,25.8-13.1,32.1-13.9c44.8-3.4,112.1-3.1,112.1-3.1h0.1
			c0,0,67.2-0.2,112.1,3.1c6.2,0.8,19.9,0.7,32.1,14c9.6,10.1,12.6,33.1,12.6,33.1s3.1,27,3.1,54V247.9z"/>
	</g>
</g>
<g id="Layer_1_1_">
</g>
</svg>
